<?xml version="1.0" encoding="utf-8"?>
<!-- Generator: Adobe Illustrator 19.1.0, SVG Export Plug-In . SVG Version: 6.00 Build 0)  -->
<svg version="1.1" id="Layer_1" xmlns="http://www.w3.org/2000/svg" xmlns:xlink="http://www.w3.org/1999/xlink" x="0px" y="0px"
	 viewBox="0 0 612 792" style="enable-background:new 0 0 612 792;" xml:space="preserve">
<style type="text/css">
	.st0{fill-rule:evenodd;clip-rule:evenodd;fill:#F8B0AB;}
	.st1{fill-rule:evenodd;clip-rule:evenodd;fill:#FEEEEB;}
	.st2{fill-rule:evenodd;clip-rule:evenodd;fill:#FFEFDC;}
	.st3{fill-rule:evenodd;clip-rule:evenodd;fill:#FEE7D7;}
	.st4{fill-rule:evenodd;clip-rule:evenodd;fill:none;}
	.st5{fill:#A8DAC6;}
	.st6{font-family:'Lato-Bold';}
	.st7{font-size:36px;}
</style>
<g>
	<path class="st0" d="M121.6,383.9l9.8-50.3l5.2,70.5l6.6-39.5l3.4,19.3l48.3,0.5c0,0.5-0.1,1.1-0.1,1.6c0,0.5,0,1.1,0.1,1.6
		l-51-0.5l-0.6-3.4l-7.8,47.9l-5.5-73.8l-5.7,29.3H78.9c0.1-0.5,0.1-1.1,0.1-1.6c0-0.5,0-1.1-0.1-1.6H121.6L121.6,383.9z"/>
	<path class="st1" d="M67.4,375.3c5.7,0,10.3,4.6,10.3,10.3c0,5.7-4.6,10.3-10.3,10.3c-5.7,0-10.3-4.6-10.3-10.3
		C57.1,379.9,61.7,375.3,67.4,375.3L67.4,375.3z M67.4,378.6c3.8,0,6.9,3.1,6.9,6.9s-3.1,6.9-6.9,6.9c-3.8,0-6.9-3.1-6.9-6.9
		S63.6,378.6,67.4,378.6L67.4,378.6z"/>
	<path class="st2" d="M67.4,379.5c3.4,0,6.1,2.7,6.1,6.1c0,3.4-2.7,6.1-6.1,6.1c-3.4,0-6.1-2.7-6.1-6.1
		C61.3,382.2,64.1,379.5,67.4,379.5L67.4,379.5z M67.4,385.1c0.2,0,0.4,0.2,0.4,0.4c0,0.2-0.2,0.4-0.4,0.4c-0.2,0-0.4-0.2-0.4-0.4
		C67,385.3,67.2,385.1,67.4,385.1L67.4,385.1z"/>
	<path class="st3" d="M251.4,410.6c0.6-1.4,1.1-2.9,1.6-4.5c-0.5-1.4-0.7-3.4-0.5-4.4c0.3-1.5,1.8-2.5,3.3-2.2
		c1.5,0.3,2.5,1.8,2.2,3.3c-0.2,0.9-1,2.7-2,3.8c-1.6,6.1-4.1,11-8,10.8c-9.2-0.6-19.7-2.4-29-5.8c-4.3-1.6-8.4-3.6-11.8-6
		c-6.8-4.7-11.3-11.1-11.3-19.4c0-8.3,4.5-14.7,11.3-19.4c3.4-2.4,7.5-4.4,11.8-6c9.2-3.4,19.8-5.2,29-5.8c3.8-0.2,6.3,4.7,8,10.8
		c1,1.1,1.8,2.8,2,3.8c0.3,1.5-0.7,3-2.2,3.3c-1.5,0.3-3-0.7-3.3-2.2c-0.2-1-0.1-3,0.5-4.4c-0.4-1.6-0.9-3.1-1.6-4.5
		c-0.4-1-1.6-3.3-2.8-3.6c-0.1,0-0.2,0-0.3,0c-6,0.4-12.1,1.2-17.9,2.6c-12.5,2.9-31.2,9.9-31.2,25.5c0,15.6,18.7,22.6,31.2,25.5
		c5.9,1.4,11.9,2.2,17.9,2.6c0.1,0,0.2,0,0.3,0C249.8,413.9,251,411.5,251.4,410.6L251.4,410.6z"/>
	<rect x="205.1" y="371" class="st4" width="333" height="65"/>
	<text transform="matrix(1 0 0 1 205.0962 397.748)" class="st5 st6 st7">Doctor Messanger</text>
</g>
</svg>
